<?xml version="1.0" standalone="no"?><!DOCTYPE svg PUBLIC "-//W3C//DTD SVG 1.1//EN"
  "http://www.w3.org/Graphics/SVG/1.1/DTD/svg11.dtd">
<svg t="0" class="icon" viewBox="0 0 1024 1024" version="1.1" xmlns="http://www.w3.org/2000/svg"
  xmlns:xlink="http://www.w3.org/1999/xlink" width="1024" height="1024">
  <defs>
    <filter id="icon_shadow" x="-20%" y="-20%" width="140%" height="140%">
      <feGaussianBlur in="SourceAlpha" stdDeviation="20"/>
      <feOffset dx="0" dy="15" result="offsetblur"/>
      <feComponentTransfer>
        <feFuncA type="linear" slope="0.3"/>
      </feComponentTransfer>
      <feMerge>
        <feMergeNode/>
        <feMergeNode in="SourceGraphic"/>
      </feMerge>
    </filter>
  </defs>
  <g transform="translate(102.4000 102.4000) scale(0.8)" filter="url(#icon_shadow)">
    <!-- path start -->
    <g transform="translate(0.000000,1024.000000) scale(0.100000,-0.100000)"
fill="#E87F24" stroke="none">
<path d="M9045 8617 c-150 -50 -207 -166 -172 -352 17 -90 13 -108 -43 -190
-66 -95 -75 -170 -35 -287 33 -97 35 -90 -44 -172 -85 -87 -101 -132 -101
-279 0 -113 -13 -147 -66 -172 -46 -22 -52 -19 -63 23 -6 20 -29 64 -51 97
-46 69 -47 77 -20 136 32 71 27 140 -15 215 -36 63 -36 63 -20 129 53 228 -7
385 -146 385 -319 0 -746 -481 -846 -954 -24 -114 -24 -367 0 -454 18 -63 18
-63 -10 -120 -27 -55 -28 -62 -28 -212 0 -221 60 -436 165 -600 39 -59 39 -59
8 -119 -17 -32 -38 -92 -48 -133 -9 -40 -20 -66 -23 -58 -2 8 -22 84 -42 169
-120 501 -374 973 -692 1282 -148 145 -354 298 -480 359 -35 17 -63 32 -63 34
0 2 11 52 24 112 80 361 72 723 -20 907 -104 206 -284 295 -472 233 -149 -50
-282 -276 -282 -481 0 -280 288 -449 472 -277 31 29 48 39 48 29 0 -58 -60
-373 -76 -399 -3 -4 -16 -3 -30 3 -40 15 -258 56 -367 70 -250 30 -687 -7
-907 -77 -41 -13 -83 -24 -92 -24 -20 0 -19 -3 -49 165 -99 554 -306 837 -614
837 -166 0 -287 -76 -362 -230 -52 -103 -57 -296 -11 -394 120 -256 454 -288
564 -53 13 28 24 64 24 80 2 96 63 -113 99 -335 25 -158 29 -222 13 -228 -55
-18 -252 -168 -373 -283 -371 -352 -613 -875 -713 -1539 -34 -226 -35 -232
-46 -430 -8 -144 -13 -177 -27 -187 -36 -27 -207 -87 -211 -74 -2 6 -21 37
-42 69 -38 56 -38 56 -20 92 75 148 103 379 57 471 -18 35 -18 39 0 95 34 111
24 322 -21 469 -114 367 -380 665 -593 665 -135 0 -173 -45 -173 -205 0 -67
-5 -105 -16 -126 -10 -21 -14 -53 -13 -106 2 -65 -1 -77 -17 -86 -62 -34 -84
-72 -84 -145 0 -62 -3 -73 -31 -108 -17 -22 -35 -46 -39 -54 -8 -13 -21 -9
-82 24 -105 56 -102 51 -103 164 0 118 -25 177 -96 229 -103 76 -97 62 -66
130 21 47 27 76 27 131 0 88 -10 113 -74 179 -50 53 -50 53 -33 117 122 458
-370 532 -784 117 -383 -383 -545 -1063 -384 -1621 213 -738 943 -1223 1630
-1081 60 12 112 24 114 26 2 3 19 -8 37 -24 153 -135 376 -168 554 -82 27 13
50 15 95 11 116 -12 272 19 387 76 46 23 46 23 58 -64 71 -509 366 -1081 713
-1382 75 -65 75 -65 -2 -145 -188 -196 -275 -399 -226 -523 12 -29 13 -45 5
-66 -34 -90 8 -308 92 -476 164 -329 420 -340 469 -20 14 92 5 243 -20 343
-17 65 -18 74 -3 90 20 22 20 22 38 -54 38 -151 158 -345 238 -383 48 -23 133
-21 174 4 92 56 132 335 77 533 -16 58 -16 58 10 89 14 17 35 48 45 69 26 49
28 51 83 34 251 -75 741 -95 1020 -41 81 15 153 26 161 23 8 -3 24 -36 36 -74
36 -112 91 -235 126 -283 32 -45 32 -45 17 -100 -26 -93 -22 -379 7 -453 67
-175 228 -212 356 -81 38 40 115 176 143 254 13 35 13 35 23 10 56 -144 120
-183 242 -149 176 49 374 514 297 696 -12 29 -11 36 4 59 24 38 17 170 -13
238 -37 83 -129 210 -214 297 -81 82 -81 82 -51 108 73 61 208 219 276 324
264 398 380 806 396 1386 6 224 6 224 81 255 116 48 189 91 263 156 67 59 69
60 127 60 186 0 371 144 424 331 3 12 24 18 96 23 768 58 1365 728 1476 1657
82 681 -279 1476 -754 1660 -70 27 -217 36 -277 16z m-3129 -374 c23 -30 16
-43 -20 -43 -41 0 -51 12 -36 40 13 25 38 26 56 3z m-1993 -153 c61 -39 59
-48 -10 -47 -38 1 -70 -5 -91 -17 -41 -21 -48 -17 -33 25 26 75 61 85 134 39z
m2098 -1716 c240 -94 373 -372 300 -627 -121 -422 -707 -413 -858 13 -88 250
62 558 305 627 60 17 194 10 253 -13z m-1945 -50 c17 -8 42 -26 54 -39 22 -24
22 -24 -26 -9 -214 66 -422 -164 -412 -456 8 -241 158 -385 346 -331 46 14 31
-4 -31 -37 -113 -59 -268 -34 -350 57 -286 317 58 986 419 815z m-119 -174
c29 -11 63 -55 63 -84 0 -28 -60 -86 -89 -86 -109 0 -113 155 -5 180 1 0 14
-5 31 -10z m1220 -553 c-14 -115 -118 -243 -232 -286 -167 -63 -375 27 -452
196 -43 94 -21 116 89 89 165 -41 295 -28 503 47 86 32 100 25 92 -46z"/>
<path d="M5720 6311 c-316 -104 -352 -615 -54 -766 84 -43 222 -44 300 -3 333
175 231 759 -136 774 -47 2 -96 0 -110 -5z m31 -150 c71 -71 -14 -188 -103
-140 -11 6 -26 27 -35 46 -37 89 70 162 138 94z"/>
</g>
    <!-- path end -->
  </g>
</svg>
